<?xml version="1.0" encoding="UTF-8" standalone="no"?>
<!-- Created with Inkscape (http://www.inkscape.org/) -->

<svg
   xmlns:dc="http://purl.org/dc/elements/1.1/"
   xmlns:cc="http://creativecommons.org/ns#"
   xmlns:rdf="http://www.w3.org/1999/02/22-rdf-syntax-ns#"
   xmlns:svg="http://www.w3.org/2000/svg"
   xmlns="http://www.w3.org/2000/svg"
   xmlns:sodipodi="http://sodipodi.sourceforge.net/DTD/sodipodi-0.dtd"
   xmlns:inkscape="http://www.inkscape.org/namespaces/inkscape"
   width="210mm"
   height="297mm"
   viewBox="0 0 210 297"
   version="1.1"
   id="svg115"
   inkscape:version="0.92.4 (5da689c313, 2019-01-14)"
   sodipodi:docname="baby-rhino2.svg">
  <defs
     id="defs109" />
  <sodipodi:namedview
     id="base"
     pagecolor="#ffffff"
     bordercolor="#666666"
     borderopacity="1.0"
     inkscape:pageopacity="0.0"
     inkscape:pageshadow="2"
     inkscape:zoom="0.35"
     inkscape:cx="400"
     inkscape:cy="102.85714"
     inkscape:document-units="mm"
     inkscape:current-layer="layer1"
     showgrid="false"
     inkscape:window-width="1920"
     inkscape:window-height="1125"
     inkscape:window-x="1920"
     inkscape:window-y="0"
     inkscape:window-maximized="1" />
  <metadata
     id="metadata112">
    <rdf:RDF>
      <cc:Work
         rdf:about="">
        <dc:format>image/svg+xml</dc:format>
        <dc:type
           rdf:resource="http://purl.org/dc/dcmitype/StillImage" />
        <dc:title></dc:title>
      </cc:Work>
    </rdf:RDF>
  </metadata>
  <g
     inkscape:label="Layer 1"
     inkscape:groupmode="layer"
     id="layer1">
    <g
       id="g179"
       transform="matrix(0.54606932,0,0,0.54606932,-9.6519708,20.406288)">
      <path
         style="fill:#fcf3f3;stroke-width:0.35277778"
         d="M 68.665672,220.64881 V 71.600197 H 217.71429 366.7629 V 220.64881 369.69743 H 217.71429 68.665672 Z"
         id="path183"
         inkscape:connector-curvature="0" />
      <path
         style="fill:#ed4036;stroke-width:0.35277778"
         d="M 68.665672,220.64881 V 71.600197 H 217.71429 366.7629 V 220.64881 369.69743 H 217.71429 68.665672 Z m 70.341428,79.69893 c 0.11777,-0.30691 0.21413,-1.09129 0.21413,-1.74307 0,-0.65178 0.18459,-1.29913 0.4102,-1.43857 0.3837,-0.23713 0.81851,0.16456 3.02705,2.79651 0.81786,0.97466 1.50164,1.22959 1.50164,0.55985 0,-0.21082 -0.50167,-1.08187 -1.11483,-1.93567 l -1.11482,-1.55236 0.93844,-0.86972 c 1.26564,-1.17295 1.26111,-2.71504 -0.0109,-3.71561 -0.7582,-0.59639 -1.34422,-0.72585 -2.91042,-0.64296 l -1.96108,0.10378 -0.10038,4.03538 c -0.0552,2.21946 -0.0205,4.24352 0.0771,4.49792 0.24235,0.63156 0.78385,0.58203 1.04384,-0.0955 z m 0.21413,-5.96837 c 0,-1.56077 0.0196,-1.5875 1.16417,-1.5875 1.34043,0 2.01083,0.52926 2.01083,1.5875 0,1.05823 -0.6704,1.5875 -2.01083,1.5875 -1.14457,0 -1.16417,-0.0267 -1.16417,-1.5875 z m 14.90892,5.99722 c -0.0463,-0.19403 -0.95083,-0.40014 -2.01012,-0.45803 -2.10019,-0.11477 -2.59738,-0.66375 -2.16421,-2.38965 0.18758,-0.74738 0.41632,-0.85648 1.79574,-0.85648 1.16995,0 1.58078,-0.13753 1.58078,-0.52917 0,-0.39078 -0.40893,-0.52917 -1.56373,-0.52917 -1.25389,0 -1.60809,-0.13979 -1.78766,-0.70555 -0.47789,-1.50572 0.0789,-2.07522 2.13908,-2.18781 2.86829,-0.15674 2.3522,-0.81081 -0.63977,-0.81081 h -2.55764 l -0.10037,4.03538 c -0.0552,2.21946 -0.0178,4.25052 0.0831,4.51347 0.2215,0.57722 5.36279,0.49636 5.22481,-0.0822 z m 5.44685,-0.70555 c 0.57408,-1.20386 0.64052,-1.23473 2.65813,-1.23473 2.03149,0 2.07876,0.0226 2.58523,1.23473 0.50523,1.20919 0.98347,1.53708 1.358,0.93107 0.20243,-0.32753 -2.81085,-8.11413 -3.36066,-8.68425 -0.68743,-0.71285 -1.54613,0.48369 -3.17454,4.42347 -0.91501,2.21377 -1.58864,4.14641 -1.49697,4.29474 0.35154,0.5688 0.86429,0.22297 1.43081,-0.96503 z m 1.37014,-2.59716 c -0.24025,-0.38874 0.86202,-3.22368 1.25342,-3.22368 0.33295,0 1.36234,2.29833 1.36234,3.0417 0,0.54195 -2.29462,0.70158 -2.61576,0.18198 z m 15.07859,3.35084 c 1.57615,-0.65856 2.48794,-2.16299 2.48794,-4.10507 0,-3.0672 -1.8976,-4.58611 -5.72948,-4.58611 -1.5806,0 -2.14246,0.13605 -2.30438,0.55802 -0.11778,0.30691 -0.21414,2.11955 -0.21414,4.02809 0,1.90854 0.0964,3.72118 0.21414,4.02809 0.27612,0.71957 3.888,0.76971 5.54592,0.077 z m -4.19884,-1.04776 c -0.0993,-0.25875 -0.134,-1.80656 -0.0771,-3.43958 l 0.10341,-2.96912 1.25465,-0.10542 c 1.92905,-0.16209 3.11539,0.45344 3.73581,1.9383 0.66444,1.59023 0.19685,3.6504 -1.02234,4.50435 -0.96576,0.67645 -3.74318,0.72614 -3.9944,0.0715 z m 24.89712,-2.55645 0.17639,-3.85225 1.32291,-0.10949 c 0.86539,-0.0716 1.32292,-0.28514 1.32292,-0.61736 0,-0.40812 -0.6929,-0.50787 -3.52778,-0.50787 -2.83487,0 -3.52777,0.0997 -3.52777,0.50787 0,0.33222 0.45753,0.54574 1.32291,0.61736 l 1.32292,0.10949 0.0938,3.52778 c 0.10397,3.91164 0.23064,4.53626 0.87655,4.32256 0.30162,-0.0998 0.49648,-1.36214 0.61718,-3.99809 z m 8.11389,1.94119 0.17639,-1.91289 h 2.29305 2.29306 l 0.18414,1.83044 c 0.19745,1.96276 0.43131,2.43285 1.02711,2.06463 0.52225,-0.32277 0.50744,-8.53485 -0.016,-8.85833 -0.59245,-0.36616 -1.00746,0.55328 -1.01349,2.24535 l -0.005,1.51543 -2.38125,-0.10431 -2.38125,-0.10432 -0.11047,-1.5875 c -0.12555,-1.80421 -0.62028,-2.57278 -1.13354,-1.76094 -0.3691,0.58382 -0.47051,7.36947 -0.12364,8.27339 0.42132,1.09794 1.0161,0.29861 1.19126,-1.60095 z m 12.52361,-2.44205 c 0,-3.16716 -0.11998,-4.39092 -0.44097,-4.49792 -0.3379,-0.11263 -0.44098,0.93878 -0.44098,4.49792 0,3.55913 0.10308,4.61055 0.44098,4.49791 0.32099,-0.10699 0.44097,-1.33075 0.44097,-4.49791 z m 6.52639,1.41111 c 0,-1.52932 0.14558,-2.87056 0.32352,-2.98053 0.17794,-0.10997 1.45153,1.23003 2.8302,2.97779 1.37866,1.74776 2.64484,3.17774 2.81373,3.17774 0.56582,0 0.73536,-1.09243 0.72993,-4.70316 -0.006,-3.69934 -0.37313,-5.14363 -1.04754,-4.11629 -0.19105,0.29105 -0.3498,1.7545 -0.35277,3.25213 -0.004,2.04156 -0.11575,2.67607 -0.44638,2.5356 -0.24253,-0.10305 -1.45345,-1.53328 -2.69092,-3.1783 -1.23748,-1.64502 -2.4281,-2.93185 -2.64584,-2.85963 -0.41021,0.13606 -0.76975,7.6934 -0.41054,8.62947 0.45156,1.17675 0.89661,-0.18073 0.89661,-2.73482 z m 12.83864,2.61698 c 0.11778,-0.30691 0.21414,-1.17067 0.21414,-1.91946 0,-0.74879 0.15203,-1.4554 0.33784,-1.57024 0.18582,-0.11484 1.28805,0.7886 2.44941,2.00765 1.43099,1.50209 2.22761,2.10118 2.47163,1.85878 0.24435,-0.24272 -0.20274,-1.01725 -1.39106,-2.40981 -0.96314,-1.12868 -1.75116,-2.13303 -1.75116,-2.23189 0,-0.0989 0.72176,-1.02459 1.60391,-2.05715 2.26008,-2.64545 1.36265,-2.93832 -1.20821,-0.39428 -1.10201,1.09051 -2.11812,1.98275 -2.25801,1.98275 -0.13989,0 -0.25678,-0.67469 -0.25975,-1.4993 -0.006,-1.67754 -0.42283,-2.59429 -1.0135,-2.22924 -0.42694,0.26387 -0.57185,8.37021 -0.15703,8.78502 0.38632,0.38632 0.73452,0.26945 0.96179,-0.32283 z m 21.65965,-2.55718 c 0.0564,-1.58511 0.24113,-2.88202 0.41062,-2.88202 0.16948,0 0.8852,1.03187 1.59049,2.29305 0.7053,1.26118 1.49845,2.29306 1.76257,2.29306 0.26412,0 1.01898,-0.98181 1.67746,-2.18181 0.65848,-1.19999 1.38051,-2.2429 1.60452,-2.31756 0.28092,-0.0936 0.43919,0.77483 0.51014,2.79916 0.163,4.65113 0.80841,3.4033 0.80841,-1.56299 0,-5.31528 -0.35492,-5.52933 -2.64583,-1.59568 -0.87313,1.49922 -1.77482,2.72953 -2.00376,2.73403 -0.22895,0.005 -1.07998,-1.19418 -1.8912,-2.66373 -2.40474,-4.35633 -3.14692,-4.00431 -3.1552,1.49653 -0.006,3.78442 0.18093,4.8168 0.83182,4.60148 0.23988,-0.0794 0.43813,-1.27432 0.49996,-3.01352 z m 14.19673,1.85615 c 0.51087,-0.92464 0.77831,-1.04506 2.52841,-1.13848 1.9093,-0.10192 1.97515,-0.0739 2.69522,1.14653 0.73537,1.24635 1.465,1.64835 1.47019,0.81003 0.006,-0.88825 -3.32262,-8.45622 -3.79917,-8.63909 -0.27038,-0.10375 -0.6942,0.0315 -0.94181,0.30057 -0.51538,0.56002 -3.37954,7.65678 -3.37719,8.36791 0.002,0.75306 0.80329,0.2766 1.42435,-0.84747 z m 1.26789,-2.54893 c -0.19513,-0.31573 1.03897,-3.24758 1.36701,-3.24758 0.28235,0 1.23397,2.30375 1.23397,2.98728 0,0.38076 -0.35876,0.5405 -1.2139,0.5405 -0.66765,0 -1.29183,-0.12609 -1.38708,-0.2802 z m 11.00062,1.84012 c 0.0601,-0.95497 0.25466,-1.8832 0.43226,-2.06274 0.19677,-0.19892 1.1323,0.54551 2.39503,1.90581 1.27393,1.37237 2.23232,2.13324 2.48799,1.97523 0.43971,-0.27175 0.32181,-0.46777 -1.9958,-3.31825 l -1.15727,-1.42334 1.59824,-1.79954 c 0.87903,-0.98974 1.59824,-1.95298 1.59824,-2.14053 0,-0.7784 -0.90723,-0.22584 -2.71038,1.6508 -1.11883,1.16443 -2.04318,1.86049 -2.22527,1.67569 -0.17131,-0.17386 -0.36118,-1.03048 -0.42194,-1.9036 -0.0784,-1.12683 -0.26402,-1.58751 -0.63963,-1.58751 -0.43368,0 -0.54728,0.72817 -0.62954,4.03538 -0.0552,2.21946 -0.0154,4.25672 0.0884,4.52725 0.3953,1.03013 1.07373,0.14755 1.17969,-1.53465 z m 15.68415,1.43869 c -0.0448,-0.19403 -0.99732,-0.43215 -2.11667,-0.52916 l -2.03518,-0.17639 v -1.41111 -1.41112 l 1.69835,-0.10844 c 2.14513,-0.13698 2.05413,-0.8784 -0.13824,-1.12628 -1.5142,-0.1712 -1.56011,-0.21272 -1.56011,-1.41111 v -1.23472 l 2.03518,-0.17639 c 2.93976,-0.25479 2.68318,-0.8625 -0.41659,-0.98675 -1.85342,-0.0743 -2.69927,0.0284 -2.90502,0.35278 -0.33792,0.53271 -0.40577,7.35897 -0.0815,8.2039 0.18097,0.47159 0.69222,0.55412 2.91042,0.46983 1.56267,-0.0594 2.65672,-0.25017 2.6094,-0.45504 z M 142.67214,272.13565 c 3.74457,-1.56419 5.00714,-5.49232 2.66138,-8.28009 l -0.88348,-1.04997 0.77945,-1.61014 c 1.35211,-2.79309 0.44111,-5.27162 -2.48769,-6.76816 -1.36077,-0.69532 -2.08892,-0.79375 -5.87178,-0.79375 -2.45812,0 -4.69517,0.17168 -5.19307,0.39854 -1.50796,0.68707 -1.67667,1.7479 -1.56001,9.8094 0.13647,9.43045 -0.29666,8.84206 6.50887,8.84206 3.48234,0 5.08168,-0.14493 6.04633,-0.54789 z m -6.12892,-3.81847 c -0.10253,-0.26718 -0.13723,-1.25937 -0.0771,-2.20486 l 0.1093,-1.71906 1.3916,0.0463 c 0.97616,0.0325 1.58173,0.28113 2.02847,0.83283 0.85271,1.05305 0.80289,1.63272 -0.22904,2.66465 -0.95797,0.95797 -2.91299,1.18853 -3.22321,0.38011 z m 0.091,-7.15772 c -0.41147,-0.41147 -0.2612,-3.93068 0.17403,-4.07575 1.68215,-0.56072 3.76625,1.06211 3.29022,2.56198 -0.31955,1.0068 -2.86078,2.11724 -3.46425,1.51377 z m 17.54728,11.18378 c 0.49601,-0.18859 0.96822,-0.69974 1.05916,-1.14653 0.61755,-3.03394 0.3824,-2.79158 2.59609,-2.67559 l 2.01282,0.10547 0.22443,1.38927 c 0.29841,1.84725 1.4095,2.73515 3.24956,2.59681 1.05956,-0.0797 1.58512,-0.34963 2.14438,-1.10153 0.67368,-0.90575 0.74082,-1.46523 0.74082,-6.17361 0,-4.92267 -0.0461,-5.26446 -0.93522,-6.94149 -1.14333,-2.15641 -2.11211,-3.08979 -4.18006,-4.02731 -4.12778,-1.87135 -8.9669,0.17163 -10.97011,4.63137 -0.74886,1.66718 -0.83535,2.35267 -0.81401,6.45149 0.0242,4.64685 0.46283,6.52448 1.63434,6.99583 0.75498,0.30377 2.29516,0.25421 3.2378,-0.10418 z m 1.41046,-8.66328 c -0.33471,-1.33358 0.1167,-4.0671 0.79551,-4.81717 0.32011,-0.35373 1.03002,-0.64314 1.57755,-0.64314 1.51098,0 2.1283,1.21442 1.99967,3.9339 l -0.10593,2.23971 -2.01742,0.10547 c -1.91926,0.10033 -2.0287,0.0605 -2.24938,-0.81877 z m 26.37556,8.5911 c 2.59712,-0.77812 4.63874,-4.0346 4.03573,-6.43718 -0.11832,-0.47139 -0.61772,-1.33554 -1.10978,-1.92033 l -0.89467,-1.06325 0.71817,-1.33996 c 1.48123,-2.76366 0.50424,-5.59252 -2.44622,-7.08305 -1.38681,-0.7006 -2.10385,-0.79375 -6.10971,-0.79375 h -4.5385 l -1.03119,1.03119 -1.0312,1.0312 v 7.05973 c 0,7.10343 0.21474,8.6491 1.31803,9.4869 0.75842,0.57592 9.18989,0.59758 11.08934,0.0285 z m -5.91316,-3.95388 c -0.10252,-0.26718 -0.13723,-1.25937 -0.0771,-2.20486 l 0.1093,-1.71906 1.33115,0.041 c 2.80786,0.0864 3.76066,2.73432 1.42607,3.96316 -1.05257,0.55403 -2.56268,0.5106 -2.7894,-0.0802 z m 0.29676,-7.14884 c -0.26683,-0.1121 -0.44097,-0.862 -0.44097,-1.89894 0,-1.86436 0.37787,-2.32554 1.76389,-2.15278 1.17248,0.14615 2.11666,1.03159 2.11666,1.98497 0,1.30976 -2.15678,2.60572 -3.43958,2.06675 z m 23.22228,10.484 c 0.98381,-0.98381 1.03123,-1.1743 1.03204,-4.14514 l 7e-4,-3.11394 2.64295,-3.28182 c 2.96809,-3.68556 3.35162,-4.59539 2.49088,-5.90904 -1.50997,-2.30451 -3.4875,-1.98447 -6.27951,1.01624 l -2.02595,2.1774 -2.22034,-2.38125 c -2.58832,-2.7759 -3.54652,-3.02371 -5.22018,-1.35006 -1.87498,1.87498 -1.4617,2.94179 3.26108,8.41789 0.91521,1.0612 0.99939,1.39354 0.99939,3.94578 0,4.26894 0.7582,5.65514 3.09317,5.65514 0.8498,0 1.49198,-0.29754 2.22563,-1.0312 z m 21.30011,0.81206 c 0.87992,-0.33766 1.60331,-2.0483 1.60331,-3.79144 0,-2.2659 0.24869,-2.6922 1.57056,-2.6922 1.56618,0 2.30847,0.95138 2.63822,3.3814 0.33109,2.43977 1.19073,3.32138 3.23863,3.32138 1.72008,0 2.62685,-0.85312 2.95193,-2.77725 0.33615,-1.98966 -0.0482,-3.41084 -1.31154,-4.84973 l -1.07518,-1.22455 0.98278,-1.0258 c 1.2238,-1.27738 1.59842,-3.92224 0.77877,-5.49828 -1.47338,-2.83307 -3.67662,-3.67439 -9.62246,-3.67439 -4.08565,0 -4.40493,0.051 -5.33551,0.85164 l -0.98981,0.85164 v 7.82213 7.82214 l 0.98981,0.85122 c 0.96099,0.82644 2.40822,1.08193 3.58049,0.63209 z m 2.03692,-11.13003 c -0.61407,-0.61407 -0.55523,-3.63296 0.0811,-4.16107 0.61801,-0.5129 2.4338,-0.18808 3.19308,0.5712 0.71331,0.71331 0.66333,2.36091 -0.0918,3.02704 -0.87914,0.7755 -2.65552,1.08967 -3.18236,0.56283 z m 18.27884,10.70222 c 0.62746,-0.50809 0.82909,-1.09491 0.93938,-2.73403 0.26158,-3.88761 0.12046,-3.71957 3.02469,-3.60163 l 2.54709,0.10344 0.0895,1.5875 c 0.15261,2.70653 0.4529,3.89379 1.16489,4.60579 0.97065,0.97064 2.87358,0.89422 4.10579,-0.16489 l 0.98981,-0.85077 0.10726,-7.78925 0.10727,-7.78925 -0.88498,-0.88498 c -1.70239,-1.7024 -4.80217,-0.93797 -5.31576,1.3109 -0.10083,0.4415 -0.22393,1.8346 -0.27356,3.09578 l -0.0902,2.29306 h -2.64583 -2.64584 l -0.0893,-2.64584 c -0.11939,-3.53883 -0.26706,-4.04133 -1.32999,-4.52563 -1.58397,-0.7217 -2.9523,-0.5057 -4.10621,0.64822 l -1.06148,1.06147 0.11847,7.61258 0.11847,7.61258 0.98981,0.85095 c 1.19847,1.03033 3.01,1.11958 4.1407,0.204 z m 21.66838,-0.1907 c 1.13879,-1.1388 1.32746,-2.79206 1.18834,-10.41316 -0.11478,-6.28732 -0.13899,-6.46874 -0.95061,-7.12539 -1.22302,-0.98948 -3.38614,-0.89663 -4.47487,0.19211 l -0.86591,0.8659 v 7.79319 7.79318 l 0.86591,0.8659 c 1.16497,1.16499 3.0876,1.17781 4.23714,0.0283 z m 8.90662,-0.22069 c 0.24779,-0.49242 0.44611,-2.16738 0.44902,-3.79236 0.003,-1.60073 0.10421,-2.91042 0.22522,-2.91042 0.12101,0 1.73173,1.44521 3.57937,3.21157 4.89016,4.67502 6.38731,5.37875 8.24416,3.87516 0.83281,-0.67437 0.83283,-0.67466 0.83283,-9.02427 0,-7.85832 -0.0403,-8.37936 -0.68478,-8.85062 -0.96453,-0.70528 -2.19258,-0.62197 -3.01938,0.20483 -0.60103,0.60103 -0.70556,1.17593 -0.70556,3.88056 0,1.74625 -0.1222,3.175 -0.27155,3.175 -0.14935,0 -1.77654,-1.51943 -3.61597,-3.37651 -1.83943,-1.85707 -3.7731,-3.60332 -4.29704,-3.88055 -1.4577,-0.7713 -3.00945,-0.63101 -4.00231,0.36186 l -0.86591,0.8659 v 8.10992 c 0,8.00879 0.01,8.11693 0.79375,8.67125 1.15006,0.8133 2.79588,0.55627 3.33815,-0.52132 z m 29.51822,0.55891 c 2.20272,-0.66292 3.86716,-1.98228 5.05938,-4.01045 0.88344,-1.50286 0.978,-1.9878 0.978,-5.01512 0,-3.02766 -0.0945,-3.51217 -0.97841,-5.01583 -2.20065,-3.74365 -7.04281,-5.40577 -11.68143,-4.00975 -2.19415,0.66035 -3.86751,1.98178 -5.03734,3.97795 -1.38271,2.35941 -1.59433,6.59122 -0.46132,9.22497 1.84806,4.29595 7.04684,6.37536 12.12112,4.84823 z m -5.06605,-4.85868 c -0.91768,-1.50457 -1.20852,-3.09961 -0.95519,-5.23854 0.36566,-3.0875 1.64879,-4.60439 3.41944,-4.0424 1.23526,0.39205 1.92172,2.21157 1.9294,5.11405 0.009,3.34359 -0.82983,5.0556 -2.55974,5.22522 -0.94573,0.0927 -1.23292,-0.073 -1.83391,-1.05833 z m -67.38962,-24.12917 c 17.81614,-3.03499 33.28719,-15.60477 40.11575,-32.59287 5.26041,-13.08685 5.23484,-27.35199 -0.0724,-40.37449 -2.72386,-6.68366 -6.27643,-12.06772 -11.3909,-17.26336 -10.43662,-10.60226 -23.162,-15.9031 -38.1775,-15.9031 -6.26934,0 -9.71831,0.4722 -15.32613,2.09831 -13.14008,3.81025 -24.24122,12.67277 -31.36947,25.04362 -9.64957,16.7465 -9.07054,38.66346 1.45395,55.03333 7.78097,12.10258 20.31852,20.85525 33.81741,23.60851 6.61395,1.34899 14.32849,1.47789 20.94924,0.35005 z m -10.80975,-24.82425 c -2.80783,-0.66957 -6.34942,-4.1178 -9.33051,-9.08455 -1.02419,-1.70639 -2.0154,-3.20598 -2.20269,-3.33241 -0.1873,-0.12643 -1.07082,-0.0141 -1.96338,0.24966 -7.82315,2.31169 -17.1553,1.97495 -21.872,-0.78922 -5.08135,-2.97787 -8.14945,-8.60155 -8.14945,-14.93754 0,-2.04476 1.11808,-6.50093 2.12766,-8.47986 1.60818,-3.15229 5.9807,-6.71454 7.51782,-6.1247 0.54184,0.20793 1.28441,2.14265 1.28866,3.35755 0.005,1.30272 1.2698,1.83102 4.47783,1.86971 l 3.07257,0.037 1.9961,-3.08669 c 1.78697,-2.7633 2.65229,-4.68703 4.80029,-10.67164 0.723,-2.01436 3.10925,-4.61413 4.57219,-4.98131 0.86715,-0.21764 1.20957,0.0166 3.28456,2.2463 l 2.31649,2.48928 1.76388,-0.51098 c 3.01274,-0.87274 6.60179,-0.73732 10.58334,0.39932 4.13902,1.18159 7.87578,1.33141 15.16944,0.6082 3.87591,-0.38432 5.02735,-0.37674 7.43536,0.0489 5.67239,1.00271 9.60071,3.89562 11.9137,8.77353 1.73046,3.6494 2.25283,5.81526 2.66658,11.05645 0.40735,5.16002 1.15327,7.97074 2.7979,10.54283 0.69016,1.07935 1.11563,2.20114 1.11563,2.94142 V 202.19 l -1.49931,-0.24912 c -1.59321,-0.26471 -3.25144,-0.98696 -3.61442,-1.57428 -0.43014,-0.69598 -0.89753,-0.33408 -1.47747,1.14402 -0.32355,0.82462 -1.61963,3.54613 -2.88019,6.0478 -2.88055,5.71666 -5.69183,8.85039 -9.04944,10.08737 -3.45235,1.27188 -7.44826,0.55912 -8.84881,-1.57839 -0.31085,-0.47441 -0.71118,-2.0983 -0.88962,-3.60863 -0.43744,-3.70244 -1.18858,-5.63064 -2.44693,-6.28136 -1.3169,-0.68099 -3.66677,-0.67052 -4.3567,0.0194 -0.6773,0.67729 -1.26867,2.75608 -1.27125,4.46865 -0.009,6.1015 -3.45844,9.03941 -9.04783,7.70653 z m 26.17646,-3.75397 c 2.234,-1.06011 3.9632,-3.45505 7.05921,-9.77706 3.72664,-7.60976 4.47975,-10.27973 4.49674,-15.94217 0.0113,-3.75221 -0.10211,-4.57081 -0.9976,-7.20274 -2.12242,-6.238 -5.56697,-9.5909 -10.85787,-10.56898 -1.55318,-0.28711 -3.09996,-0.24545 -6.69158,0.18025 -5.52483,0.65484 -10.10534,0.47585 -14.30489,-0.55898 -1.61186,-0.39719 -4.25283,-0.82379 -5.86881,-0.948 -2.82818,-0.21739 -2.95841,-0.1943 -3.47911,0.61686 -0.29752,0.46349 -0.65333,1.7952 -0.7907,2.95937 -0.29805,2.52585 -0.94117,3.92147 -1.95541,4.24338 -1.00511,0.31901 -1.22873,0.0112 -1.90504,-2.62204 -0.31914,-1.24257 -0.90236,-2.94448 -1.29605,-3.78202 -0.78063,-1.66072 -3.26882,-4.13789 -3.93553,-3.9181 -0.44938,0.14815 -0.76306,3.76509 -0.43863,5.05773 0.10661,0.42473 0.75867,1.44831 1.44903,2.27462 1.65827,1.98482 1.5824,3.19913 -0.22782,3.64651 -1.05318,0.26029 -1.44525,0.18599 -2.29305,-0.43455 -0.56246,-0.41168 -1.40815,-0.79109 -1.8793,-0.84314 -0.94863,-0.10477 -0.83005,-0.2839 -3.32358,5.02066 -2.00726,4.27013 -2.83724,5.09675 -4.78671,4.76739 -0.89635,-0.15144 -1.68918,-0.56314 -2.10675,-1.09399 -0.86504,-1.09973 -1.24731,-1.07248 -2.3523,0.16769 -1.00297,1.12566 -2.68769,1.63087 -3.67551,1.10221 -0.82046,-0.4391 -1.41934,-2.1662 -1.41934,-4.09318 0,-0.83271 -0.157,-1.61106 -0.34888,-1.72965 -0.44892,-0.27745 -2.25837,2.57541 -3.23196,5.09564 -1.06927,2.76792 -1.09556,7.32039 -0.0555,9.6042 0.92575,2.03272 3.28713,4.64255 5.23171,5.78214 6.34247,3.71694 16.83433,3.34383 21.6399,-0.76956 1.8822,-1.61109 2.78365,-3.38588 3.42662,-6.74639 0.53553,-2.79896 1.62862,-5.03094 2.46385,-5.03094 0.68843,0 1.92115,2.55701 1.90653,3.9547 -0.007,0.63832 -0.48882,2.3512 -1.07142,3.80641 -1.7562,4.3866 -1.74145,5.30411 0.15259,9.49211 2.0782,4.59519 3.44563,6.56442 5.16877,7.4435 4.3049,2.1962 6.36085,-0.67844 5.83094,-8.15285 -0.15146,-2.13636 -0.11184,-3.49835 0.10568,-3.63279 0.19139,-0.11828 1.43325,0.04 2.7597,0.35182 2.34659,0.55157 7.64137,0.52772 10.00027,-0.045 l 0.88578,-0.21508 -0.004,5.05208 c -0.003,4.16481 0.10537,5.25188 0.61796,6.18968 0.9539,1.74516 3.85801,2.36307 6.10186,1.2983 z m -58.58515,-15.07285 c -1.46379,-1.26535 -1.53279,-2.3561 -0.14902,-2.3561 0.87715,0 3.15079,2.13837 3.15079,2.96333 0,0.95965 -1.55245,0.6456 -3.00177,-0.60723 z m 8.77202,-7.32715 c -0.6099,-0.17671 -1.21245,-0.5911 -1.33899,-0.92086 -0.289,-0.75312 0.77815,-2.24047 2.05746,-2.8676 0.81808,-0.40103 1.08026,-0.3886 1.80386,0.0855 0.86932,0.56959 1.4882,2.55969 1.10586,3.55604 -0.22873,0.59607 -1.85122,0.66176 -3.62819,0.14689 z"
         id="path181"
         inkscape:connector-curvature="0" />
    </g>
  </g>
</svg>
